<?xml version="1.0" encoding="utf-8"?>
<svg xmlns="http://www.w3.org/2000/svg" version="1.1" width="1920" height="960">

<line x1="100" y1="100" x2="200" y2="100" stroke="rgba(255,0,0,1)" />
<text x="150" y="98" fill="rgba(0,0,255,1)" >6</text>
<line x1="200" y1="100" x2="300" y2="100" stroke="rgba(255,0,0,1)" />
<text x="250" y="98" fill="rgba(0,0,255,1)" >9</text>
<line x1="300" y1="100" x2="400" y2="100" stroke="rgba(255,0,0,1)" />
<text x="350" y="98" fill="rgba(0,0,255,1)" >8</text>
<line x1="100" y1="200" x2="200" y2="200" stroke="rgba(255,0,0,1)" />
<text x="150" y="198" fill="rgba(0,0,255,1)" >5</text>
<line x1="200" y1="200" x2="300" y2="200" stroke="rgba(255,0,0,1)" />
<text x="250" y="198" fill="rgba(0,0,255,1)" >9</text>
<line x1="300" y1="200" x2="400" y2="200" stroke="rgba(255,0,0,1)" />
<text x="350" y="198" fill="rgba(0,0,255,1)" >2</text>
<line x1="100" y1="300" x2="200" y2="300" stroke="rgba(255,0,0,1)" />
<text x="150" y="298" fill="rgba(0,0,255,1)" >4</text>
<line x1="200" y1="300" x2="300" y2="300" stroke="rgba(255,0,0,1)" />
<text x="250" y="298" fill="rgba(0,0,255,1)" >1</text>
<line x1="300" y1="300" x2="400" y2="300" stroke="rgba(255,0,0,1)" />
<text x="350" y="298" fill="rgba(0,0,255,1)" >8</text>
<line x1="100" y1="400" x2="200" y2="400" stroke="rgba(255,0,0,1)" />
<text x="150" y="398" fill="rgba(0,0,255,1)" >3</text>
<line x1="200" y1="400" x2="300" y2="400" stroke="rgba(255,0,0,1)" />
<text x="250" y="398" fill="rgba(0,0,255,1)" >9</text>
<line x1="300" y1="400" x2="400" y2="400" stroke="rgba(255,0,0,1)" />
<text x="350" y="398" fill="rgba(0,0,255,1)" >3</text>
<line x1="100" y1="100" x2="100" y2="200" stroke="rgba(255,0,0,1)" />
<text x="90" y="150" fill="rgba(0,0,255,1)" >8</text>
<line x1="200" y1="100" x2="200" y2="200" stroke="rgba(255,0,0,1)" />
<text x="190" y="150" fill="rgba(0,0,255,1)" >7</text>
<line x1="300" y1="100" x2="300" y2="200" stroke="rgba(255,0,0,1)" />
<text x="290" y="150" fill="rgba(0,0,255,1)" >8</text>
<line x1="400" y1="100" x2="400" y2="200" stroke="rgba(255,0,0,1)" />
<text x="390" y="150" fill="rgba(0,0,255,1)" >6</text>
<line x1="100" y1="200" x2="100" y2="300" stroke="rgba(255,0,0,1)" />
<text x="90" y="250" fill="rgba(0,0,255,1)" >8</text>
<line x1="200" y1="200" x2="200" y2="300" stroke="rgba(255,0,0,1)" />
<text x="190" y="250" fill="rgba(0,0,255,1)" >9</text>
<line x1="300" y1="200" x2="300" y2="300" stroke="rgba(255,0,0,1)" />
<text x="290" y="250" fill="rgba(0,0,255,1)" >4</text>
<line x1="400" y1="200" x2="400" y2="300" stroke="rgba(255,0,0,1)" />
<text x="390" y="250" fill="rgba(0,0,255,1)" >1</text>
<line x1="100" y1="300" x2="100" y2="400" stroke="rgba(255,0,0,1)" />
<text x="90" y="350" fill="rgba(0,0,255,1)" >1</text>
<line x1="200" y1="300" x2="200" y2="400" stroke="rgba(255,0,0,1)" />
<text x="190" y="350" fill="rgba(0,0,255,1)" >7</text>
<line x1="300" y1="300" x2="300" y2="400" stroke="rgba(255,0,0,1)" />
<text x="290" y="350" fill="rgba(0,0,255,1)" >6</text>
<line x1="400" y1="300" x2="400" y2="400" stroke="rgba(255,0,0,1)" />
<text x="390" y="350" fill="rgba(0,0,255,1)" >1</text>
<circle cx="100" cy="100" r="10" fill="rgba(0,0,0,1)" />
<text x="95" y="105" fill="rgba(255,255,255,1)" >0</text>
<circle cx="200" cy="100" r="10" fill="rgba(0,0,0,1)" />
<text x="195" y="105" fill="rgba(255,255,255,1)" >1</text>
<circle cx="300" cy="100" r="10" fill="rgba(0,0,0,1)" />
<text x="295" y="105" fill="rgba(255,255,255,1)" >2</text>
<circle cx="400" cy="100" r="10" fill="rgba(0,0,0,1)" />
<text x="395" y="105" fill="rgba(255,255,255,1)" >3</text>
<circle cx="100" cy="200" r="10" fill="rgba(0,0,0,1)" />
<text x="95" y="205" fill="rgba(255,255,255,1)" >4</text>
<circle cx="200" cy="200" r="10" fill="rgba(0,0,0,1)" />
<text x="195" y="205" fill="rgba(255,255,255,1)" >5</text>
<circle cx="300" cy="200" r="10" fill="rgba(0,0,0,1)" />
<text x="295" y="205" fill="rgba(255,255,255,1)" >6</text>
<circle cx="400" cy="200" r="10" fill="rgba(0,0,0,1)" />
<text x="395" y="205" fill="rgba(255,255,255,1)" >7</text>
<circle cx="100" cy="300" r="10" fill="rgba(0,0,0,1)" />
<text x="95" y="305" fill="rgba(255,255,255,1)" >8</text>
<circle cx="200" cy="300" r="10" fill="rgba(0,0,0,1)" />
<text x="195" y="305" fill="rgba(255,255,255,1)" >9</text>
<circle cx="300" cy="300" r="10" fill="rgba(0,0,0,1)" />
<text x="292" y="305" fill="rgba(255,255,255,1)" >10</text>
<circle cx="400" cy="300" r="10" fill="rgba(0,0,0,1)" />
<text x="392" y="305" fill="rgba(255,255,255,1)" >11</text>
<circle cx="100" cy="400" r="10" fill="rgba(0,0,0,1)" />
<text x="92" y="405" fill="rgba(255,255,255,1)" >12</text>
<circle cx="200" cy="400" r="10" fill="rgba(0,0,0,1)" />
<text x="192" y="405" fill="rgba(255,255,255,1)" >13</text>
<circle cx="300" cy="400" r="10" fill="rgba(0,0,0,1)" />
<text x="292" y="405" fill="rgba(255,255,255,1)" >14</text>
<circle cx="400" cy="400" r="10" fill="rgba(0,0,0,1)" />
<text x="392" y="405" fill="rgba(255,255,255,1)" >15</text>
<line x1="900" y1="100" x2="1000" y2="100" stroke="rgba(255,0,0,1)" />
<text x="950" y="98" fill="rgba(0,0,255,1)" >6</text>
<line x1="1000" y1="100" x2="1000" y2="200" stroke="rgba(255,0,0,1)" />
<text x="990" y="150" fill="rgba(0,0,255,1)" >7</text>
<line x1="900" y1="200" x2="1000" y2="200" stroke="rgba(255,0,0,1)" />
<text x="950" y="198" fill="rgba(0,0,255,1)" >5</text>
<line x1="900" y1="200" x2="900" y2="300" stroke="rgba(255,0,0,1)" />
<text x="890" y="250" fill="rgba(0,0,255,1)" >8</text>
<line x1="900" y1="300" x2="900" y2="400" stroke="rgba(255,0,0,1)" />
<text x="890" y="350" fill="rgba(0,0,255,1)" >1</text>
<line x1="900" y1="400" x2="1000" y2="400" stroke="rgba(255,0,0,1)" />
<text x="950" y="398" fill="rgba(0,0,255,1)" >3</text>
<line x1="900" y1="300" x2="1000" y2="300" stroke="rgba(255,0,0,1)" />
<text x="950" y="298" fill="rgba(0,0,255,1)" >4</text>
<line x1="1000" y1="300" x2="1100" y2="300" stroke="rgba(255,0,0,1)" />
<text x="1050" y="298" fill="rgba(0,0,255,1)" >1</text>
<line x1="1100" y1="200" x2="1100" y2="300" stroke="rgba(255,0,0,1)" />
<text x="1090" y="250" fill="rgba(0,0,255,1)" >4</text>
<line x1="1100" y1="200" x2="1200" y2="200" stroke="rgba(255,0,0,1)" />
<text x="1150" y="198" fill="rgba(0,0,255,1)" >2</text>
<line x1="1200" y1="200" x2="1200" y2="300" stroke="rgba(255,0,0,1)" />
<text x="1190" y="250" fill="rgba(0,0,255,1)" >1</text>
<line x1="1200" y1="300" x2="1200" y2="400" stroke="rgba(255,0,0,1)" />
<text x="1190" y="350" fill="rgba(0,0,255,1)" >1</text>
<line x1="1100" y1="400" x2="1200" y2="400" stroke="rgba(255,0,0,1)" />
<text x="1150" y="398" fill="rgba(0,0,255,1)" >3</text>
<line x1="1200" y1="100" x2="1200" y2="200" stroke="rgba(255,0,0,1)" />
<text x="1190" y="150" fill="rgba(0,0,255,1)" >6</text>
<line x1="1100" y1="100" x2="1100" y2="200" stroke="rgba(255,0,0,1)" />
<text x="1090" y="150" fill="rgba(0,0,255,1)" >8</text>
<line x1="1100" y1="100" x2="1100" y2="200" stroke="rgba(255,0,0,1)" />
<text x="1090" y="150" fill="rgba(0,0,255,1)" >8</text>
<circle cx="900" cy="100" r="10" fill="rgba(0,0,0,1)" />
<text x="895" y="105" fill="rgba(255,255,255,1)" >0</text>
<circle cx="1000" cy="100" r="10" fill="rgba(0,0,0,1)" />
<text x="995" y="105" fill="rgba(255,255,255,1)" >1</text>
<circle cx="1100" cy="100" r="10" fill="rgba(0,0,0,1)" />
<text x="1095" y="105" fill="rgba(255,255,255,1)" >2</text>
<circle cx="1200" cy="100" r="10" fill="rgba(0,0,0,1)" />
<text x="1195" y="105" fill="rgba(255,255,255,1)" >3</text>
<circle cx="900" cy="200" r="10" fill="rgba(0,0,0,1)" />
<text x="895" y="205" fill="rgba(255,255,255,1)" >4</text>
<circle cx="1000" cy="200" r="10" fill="rgba(0,0,0,1)" />
<text x="995" y="205" fill="rgba(255,255,255,1)" >5</text>
<circle cx="1100" cy="200" r="10" fill="rgba(0,0,0,1)" />
<text x="1095" y="205" fill="rgba(255,255,255,1)" >6</text>
<circle cx="1200" cy="200" r="10" fill="rgba(0,0,0,1)" />
<text x="1195" y="205" fill="rgba(255,255,255,1)" >7</text>
<circle cx="900" cy="300" r="10" fill="rgba(0,0,0,1)" />
<text x="895" y="305" fill="rgba(255,255,255,1)" >8</text>
<circle cx="1000" cy="300" r="10" fill="rgba(0,0,0,1)" />
<text x="995" y="305" fill="rgba(255,255,255,1)" >9</text>
<circle cx="1100" cy="300" r="10" fill="rgba(0,0,0,1)" />
<text x="1092" y="305" fill="rgba(255,255,255,1)" >10</text>
<circle cx="1200" cy="300" r="10" fill="rgba(0,0,0,1)" />
<text x="1192" y="305" fill="rgba(255,255,255,1)" >11</text>
<circle cx="900" cy="400" r="10" fill="rgba(0,0,0,1)" />
<text x="892" y="405" fill="rgba(255,255,255,1)" >12</text>
<circle cx="1000" cy="400" r="10" fill="rgba(0,0,0,1)" />
<text x="992" y="405" fill="rgba(255,255,255,1)" >13</text>
<circle cx="1100" cy="400" r="10" fill="rgba(0,0,0,1)" />
<text x="1092" y="405" fill="rgba(255,255,255,1)" >14</text>
<circle cx="1200" cy="400" r="10" fill="rgba(0,0,0,1)" />
<text x="1192" y="405" fill="rgba(255,255,255,1)" >15</text>


</svg>
