<?xml version="1.0" encoding="utf-8"?>
<svg xmlns="http://www.w3.org/2000/svg" version="1.1" width="1920" height="960">

<line x1="225" y1="85" x2="175" y2="170" stroke="rgba(255,0,0,1)" />
<text x="196" y="127.5" fill="rgba(0,0,255,1)" >8</text>
<line x1="225" y1="85" x2="275" y2="170" stroke="rgba(255,0,0,1)" />
<text x="246" y="127.5" fill="rgba(0,0,255,1)" >2</text>
<line x1="175" y1="170" x2="275" y2="170" stroke="rgba(255,0,0,1)" />
<text x="225" y="168" fill="rgba(0,0,255,1)" >3</text>
<line x1="175" y1="170" x2="125" y2="255" stroke="rgba(255,0,0,1)" />
<text x="146" y="212.5" fill="rgba(0,0,255,1)" >8</text>
<line x1="175" y1="170" x2="225" y2="255" stroke="rgba(255,0,0,1)" />
<text x="196" y="212.5" fill="rgba(0,0,255,1)" >6</text>
<line x1="275" y1="170" x2="225" y2="255" stroke="rgba(255,0,0,1)" />
<text x="246" y="212.5" fill="rgba(0,0,255,1)" >5</text>
<line x1="275" y1="170" x2="325" y2="255" stroke="rgba(255,0,0,1)" />
<text x="296" y="212.5" fill="rgba(0,0,255,1)" >5</text>
<line x1="125" y1="255" x2="225" y2="255" stroke="rgba(255,0,0,1)" />
<text x="175" y="253" fill="rgba(0,0,255,1)" >6</text>
<line x1="225" y1="255" x2="325" y2="255" stroke="rgba(255,0,0,1)" />
<text x="275" y="253" fill="rgba(0,0,255,1)" >4</text>
<line x1="125" y1="255" x2="75" y2="340" stroke="rgba(255,0,0,1)" />
<text x="96" y="297.5" fill="rgba(0,0,255,1)" >9</text>
<line x1="125" y1="255" x2="175" y2="340" stroke="rgba(255,0,0,1)" />
<text x="146" y="297.5" fill="rgba(0,0,255,1)" >6</text>
<line x1="225" y1="255" x2="175" y2="340" stroke="rgba(255,0,0,1)" />
<text x="196" y="297.5" fill="rgba(0,0,255,1)" >4</text>
<line x1="225" y1="255" x2="275" y2="340" stroke="rgba(255,0,0,1)" />
<text x="246" y="297.5" fill="rgba(0,0,255,1)" >1</text>
<line x1="325" y1="255" x2="275" y2="340" stroke="rgba(255,0,0,1)" />
<text x="296" y="297.5" fill="rgba(0,0,255,1)" >9</text>
<line x1="325" y1="255" x2="375" y2="340" stroke="rgba(255,0,0,1)" />
<text x="346" y="297.5" fill="rgba(0,0,255,1)" >6</text>
<line x1="75" y1="340" x2="175" y2="340" stroke="rgba(255,0,0,1)" />
<text x="125" y="338" fill="rgba(0,0,255,1)" >3</text>
<line x1="175" y1="340" x2="275" y2="340" stroke="rgba(255,0,0,1)" />
<text x="225" y="338" fill="rgba(0,0,255,1)" >5</text>
<line x1="275" y1="340" x2="375" y2="340" stroke="rgba(255,0,0,1)" />
<text x="325" y="338" fill="rgba(0,0,255,1)" >2</text>
<circle cx="225" cy="85" r="10" fill="rgba(0,0,0,1)" />
<text x="220" y="90" fill="rgba(255,255,255,1)" >0</text>
<circle cx="175" cy="170" r="10" fill="rgba(0,0,0,1)" />
<text x="170" y="175" fill="rgba(255,255,255,1)" >1</text>
<circle cx="275" cy="170" r="10" fill="rgba(0,0,0,1)" />
<text x="270" y="175" fill="rgba(255,255,255,1)" >2</text>
<circle cx="125" cy="255" r="10" fill="rgba(0,0,0,1)" />
<text x="120" y="260" fill="rgba(255,255,255,1)" >3</text>
<circle cx="225" cy="255" r="10" fill="rgba(0,0,0,1)" />
<text x="220" y="260" fill="rgba(255,255,255,1)" >4</text>
<circle cx="325" cy="255" r="10" fill="rgba(0,0,0,1)" />
<text x="320" y="260" fill="rgba(255,255,255,1)" >5</text>
<circle cx="75" cy="340" r="10" fill="rgba(0,0,0,1)" />
<text x="70" y="345" fill="rgba(255,255,255,1)" >6</text>
<circle cx="175" cy="340" r="10" fill="rgba(0,0,0,1)" />
<text x="170" y="345" fill="rgba(255,255,255,1)" >7</text>
<circle cx="275" cy="340" r="10" fill="rgba(0,0,0,1)" />
<text x="270" y="345" fill="rgba(255,255,255,1)" >8</text>
<circle cx="375" cy="340" r="10" fill="rgba(0,0,0,1)" />
<text x="370" y="345" fill="rgba(255,255,255,1)" >9</text>
<line x1="975" y1="170" x2="1075" y2="170" stroke="rgba(255,0,0,1)" />
<text x="1025" y="168" fill="rgba(0,0,255,1)" >3</text>
<line x1="1025" y1="85" x2="1075" y2="170" stroke="rgba(255,0,0,1)" />
<text x="1046" y="127.5" fill="rgba(0,0,255,1)" >2</text>
<line x1="1075" y1="170" x2="1025" y2="255" stroke="rgba(255,0,0,1)" />
<text x="1046" y="212.5" fill="rgba(0,0,255,1)" >5</text>
<line x1="1025" y1="255" x2="1075" y2="340" stroke="rgba(255,0,0,1)" />
<text x="1046" y="297.5" fill="rgba(0,0,255,1)" >1</text>
<line x1="1075" y1="340" x2="1175" y2="340" stroke="rgba(255,0,0,1)" />
<text x="1125" y="338" fill="rgba(0,0,255,1)" >2</text>
<line x1="1025" y1="255" x2="1125" y2="255" stroke="rgba(255,0,0,1)" />
<text x="1075" y="253" fill="rgba(0,0,255,1)" >4</text>
<line x1="1025" y1="255" x2="975" y2="340" stroke="rgba(255,0,0,1)" />
<text x="996" y="297.5" fill="rgba(0,0,255,1)" >4</text>
<line x1="875" y1="340" x2="975" y2="340" stroke="rgba(255,0,0,1)" />
<text x="925" y="338" fill="rgba(0,0,255,1)" >3</text>
<line x1="925" y1="255" x2="1025" y2="255" stroke="rgba(255,0,0,1)" />
<text x="975" y="253" fill="rgba(0,0,255,1)" >6</text>
<line x1="925" y1="255" x2="1025" y2="255" stroke="rgba(255,0,0,1)" />
<text x="975" y="253" fill="rgba(0,0,255,1)" >6</text>
<circle cx="1025" cy="85" r="10" fill="rgba(0,0,0,1)" />
<text x="1020" y="90" fill="rgba(255,255,255,1)" >0</text>
<circle cx="975" cy="170" r="10" fill="rgba(0,0,0,1)" />
<text x="970" y="175" fill="rgba(255,255,255,1)" >1</text>
<circle cx="1075" cy="170" r="10" fill="rgba(0,0,0,1)" />
<text x="1070" y="175" fill="rgba(255,255,255,1)" >2</text>
<circle cx="925" cy="255" r="10" fill="rgba(0,0,0,1)" />
<text x="920" y="260" fill="rgba(255,255,255,1)" >3</text>
<circle cx="1025" cy="255" r="10" fill="rgba(0,0,0,1)" />
<text x="1020" y="260" fill="rgba(255,255,255,1)" >4</text>
<circle cx="1125" cy="255" r="10" fill="rgba(0,0,0,1)" />
<text x="1120" y="260" fill="rgba(255,255,255,1)" >5</text>
<circle cx="875" cy="340" r="10" fill="rgba(0,0,0,1)" />
<text x="870" y="345" fill="rgba(255,255,255,1)" >6</text>
<circle cx="975" cy="340" r="10" fill="rgba(0,0,0,1)" />
<text x="970" y="345" fill="rgba(255,255,255,1)" >7</text>
<circle cx="1075" cy="340" r="10" fill="rgba(0,0,0,1)" />
<text x="1070" y="345" fill="rgba(255,255,255,1)" >8</text>
<circle cx="1175" cy="340" r="10" fill="rgba(0,0,0,1)" />
<text x="1170" y="345" fill="rgba(255,255,255,1)" >9</text>


</svg>
